{
    "asset" : {
        "generator" : "Khronos glTF Blender I/O v1.4.40",
        "version" : "2.0"
    },
    "scene" : 0,
    "scenes" : [
        {
            "name" : "Scene",
            "nodes" : [
                0
            ]
        }
    ],
    "nodes" : [
        {
            "mesh" : 0,
            "name" : "Engel_C",
            "rotation" : [
                0,
                0.7071068286895752,
                0,
                0.7071068286895752
            ],
            "translation" : [
                -0.39174285531044006,
                -7.501137733459473,
                -1.1811141967773438
            ]
        }
    ],
    "materials" : [
        {
            "doubleSided" : true,
            "name" : "Engel_O_Material_u1_v1",
            "pbrMetallicRoughness" : {
                "baseColorTexture" : {
                    "index" : 0,
                    "texCoord" : 0
                },
                "metallicFactor" : 0
            }
        }
    ],
    "meshes" : [
        {
            "name" : "Engel_C",
            "primitives" : [
                {
                    "attributes" : {
                        "POSITION" : 0,
                        "NORMAL" : 1,
                        "TEXCOORD_0" : 2
                    },
                    "indices" : 3,
                    "material" : 0
                }
            ]
        }
    ],
    "textures" : [
        {
            "sampler" : 0,
            "source" : 0
        }
    ],
    "images" : [
        {
            "mimeType" : "image/jpeg",
            "name" : "Engel_C_Engel_O_Material_u1_v1",
            "uri" : "textures/Engel_C_Engel_O_Material_u1_v1.jpg"
        }
    ],
    "accessors" : [
        {
            "bufferView" : 0,
            "componentType" : 5126,
            "count" : 14990,
            "max" : [
                1.091185450553894,
                16.06532096862793,
                3.4928383827209473
            ],
            "min" : [
                -2.3935511112213135,
                7.4578142166137695,
                -3.278383493423462
            ],
            "type" : "VEC3"
        },
        {
            "bufferView" : 1,
            "componentType" : 5126,
            "count" : 14990,
            "type" : "VEC3"
        },
        {
            "bufferView" : 2,
            "componentType" : 5126,
            "count" : 14990,
            "type" : "VEC2"
        },
        {
            "bufferView" : 3,
            "componentType" : 5123,
            "count" : 44472,
            "type" : "SCALAR"
        }
    ],
    "bufferViews" : [
        {
            "buffer" : 0,
            "byteLength" : 179880,
            "byteOffset" : 0
        },
        {
            "buffer" : 0,
            "byteLength" : 179880,
            "byteOffset" : 179880
        },
        {
            "buffer" : 0,
            "byteLength" : 119920,
            "byteOffset" : 359760
        },
        {
            "buffer" : 0,
            "byteLength" : 88944,
            "byteOffset" : 479680
        }
    ],
    "samplers" : [
        {
            "magFilter" : 9729,
            "minFilter" : 9986
        }
    ],
    "buffers" : [
        {
            "byteLength" : 568624,
            "uri" : "engel1.bin"
        }
    ]
}
